<svg width="21" height="28" viewBox="0 0 21 28" fill="none" xmlns="http://www.w3.org/2000/svg">
<path d="M10.489 27.2472C10.2163 27.1196 9.98774 26.9138 9.83234 26.656C7.30108 23.073 4.75074 19.5036 2.23311 15.9097C1.27425 14.5304 0.693669 12.924 0.54923 11.2504C0.124174 6.89086 2.48105 2.69752 6.47821 0.967323C10.3582 -0.713828 14.023 -0.201581 17.3035 2.48771C18.2927 3.29196 19.1134 4.28362 19.7185 5.40581C20.3235 6.52799 20.701 7.7586 20.8293 9.02704C21.1554 11.5752 20.488 14.1511 18.9656 16.2203C16.5152 19.6716 14.0629 23.1293 11.6089 26.5933C11.4493 26.877 11.2069 27.1052 10.9141 27.2472H10.489ZM14.0992 10.2559C14.1018 9.58522 13.9061 8.92877 13.5365 8.36909C13.167 7.80942 12.6402 7.37152 12.0224 7.11047C11.4046 6.84942 10.7235 6.77688 10.0646 6.90197C9.40567 7.02706 8.79848 7.3442 8.31936 7.8135C7.84025 8.2828 7.5106 8.8833 7.3719 9.53947C7.23319 10.1956 7.29162 10.8782 7.53983 11.5012C7.78803 12.1243 8.21494 12.66 8.76684 13.041C9.31875 13.4221 9.97101 13.6314 10.6416 13.6427C11.0912 13.6481 11.5375 13.5647 11.9548 13.3973C12.3721 13.2299 12.7523 12.9817 13.0735 12.6671C13.3947 12.3524 13.6507 11.9775 13.8267 11.5637C14.0027 11.15 14.0953 10.7055 14.0992 10.2559Z" fill="#FD7E58"/>
</svg>
